# This file uses centimeters as units for non-parametric coordinates.

mtllib Rock_1.mtl
g default
v -3.090827 0.119374 1.731129
v 3.090827 0.119374 1.731129
v -2.415539 3.227455 1.072015
v 1.519462 2.803294 -0.285254
v -3.090827 3.980497 -4.450526
v 2.347624 2.064290 -4.450526
v -3.090827 0.119374 -4.450526
v 3.090827 0.046817 -5.155251
v 0.078746 4.649734 0.819122
v 0.737214 4.748690 -4.450526
v 0.737214 0.119374 -5.945807
v 0.737214 0.119374 1.731129
v 2.262390 3.762163 -1.812027
v 0.368261 5.375776 -1.497837
v -2.712450 3.650703 -1.691546
v -3.090827 0.119374 0.110554
v 0.737214 0.119374 -0.986821
v 3.090827 0.119374 -0.529961
v 2.775095 1.028903 -1.960436
v 2.491951 1.142266 0.962648
v 0.486260 1.845978 2.480921
v -2.779610 1.486402 1.731129
v -2.946621 1.465229 -1.255405
v -3.090827 1.590919 -4.450526
v 0.737214 1.883692 -5.375928
v 2.807579 0.815713 -4.886667
v 2.315652 2.701185 -3.460790
v 0.598815 4.983918 -3.342933
v -2.948893 3.856787 -3.415596
v -3.478242 1.315871 -2.439614
v -3.090827 0.119374 -3.151244
v 0.737214 0.119374 -4.085626
v 3.090827 0.074034 -3.591618
v 2.628521 1.723208 -2.486606
v -1.622874 4.275079 -4.450526
v -1.622874 1.703190 -4.805394
v -1.622874 0.119374 -5.023927
v -1.622874 0.119374 -3.509555
v -1.622874 0.119374 -0.986821
v -1.622874 0.119374 2.632234
v -1.560436 1.624290 2.054700
v -1.459046 4.068058 1.381398
v -1.531078 4.312223 -1.617264
v -1.588440 4.289012 -3.387732
v -0.923135 2.589142 -4.685740
v -3.090827 2.706957 -4.450526
v -2.995708 2.624051 -3.328403
v -2.784801 2.485941 -0.458265
v -2.638274 2.523173 1.433386
v -1.513082 2.765637 1.496752
v 0.295933 3.155455 1.119936
v 2.037756 1.918039 0.379823
v 2.535639 2.560637 -1.539844
v 2.482397 2.179966 -2.941593
v 2.592760 1.398853 -4.682970
v 0.737214 3.221772 -4.943725
vt 0.375000 0.000000
vt 0.625000 0.000000
vt 0.375000 0.250000
vt 0.625000 0.250000
vt 0.375000 0.500000
vt 0.625000 0.500000
vt 0.375000 0.750000
vt 0.625000 0.750000
vt 0.375000 1.000000
vt 0.625000 1.000000
vt 0.875000 0.000000
vt 0.875000 0.250000
vt 0.125000 0.000000
vt 0.125000 0.250000
vt 0.529815 0.250000
vt 0.529815 0.500000
vt 0.529815 0.750000
vt 0.529815 0.000000
vt 0.529815 1.000000
vt 0.625000 0.359920
vt 0.734920 0.250000
vt 0.529815 0.359920
vt 0.265080 0.250000
vt 0.375000 0.359920
vt 0.265080 0.000000
vt 0.375000 0.890080
vt 0.529815 0.890080
vt 0.625000 0.890080
vt 0.734920 0.000000
vt 0.734920 0.095280
vt 0.625000 0.095280
vt 0.529815 0.095280
vt 0.375000 0.095280
vt 0.265080 0.095280
vt 0.125000 0.095280
vt 0.375000 0.654720
vt 0.529815 0.654720
vt 0.625000 0.654720
vt 0.875000 0.095280
vt 0.625000 0.447454
vt 0.822454 0.250000
vt 0.529815 0.447454
vt 0.177546 0.250000
vt 0.375000 0.447454
vt 0.177546 0.095280
vt 0.177546 0.000000
vt 0.375000 0.802546
vt 0.529815 0.802546
vt 0.625000 0.802546
vt 0.822454 0.000000
vt 0.822454 0.095280
vt 0.434367 0.500000
vt 0.434367 0.654720
vt 0.434367 0.750000
vt 0.434367 0.802546
vt 0.434367 0.890080
vt 0.434367 0.000000
vt 0.434367 1.000000
vt 0.434367 0.095280
vt 0.434367 0.250000
vt 0.434367 0.359920
vt 0.434367 0.447454
vt 0.434367 0.582459
vt 0.125000 0.167541
vt 0.375000 0.582459
vt 0.177546 0.167541
vt 0.265080 0.167541
vt 0.375000 0.167541
vt 0.434367 0.167541
vt 0.529815 0.167541
vt 0.625000 0.167541
vt 0.734920 0.167541
vt 0.822454 0.167541
vt 0.625000 0.582459
vt 0.875000 0.167541
vt 0.529815 0.582459
vn -0.413295 0.230904 0.880835
vn -0.092549 0.061152 0.993829
vn -0.111855 0.274777 0.954980
vn -0.349971 0.278738 0.894330
vn -0.585546 0.800120 0.130166
vn -0.493140 0.858574 0.140226
vn -0.451774 0.890213 0.058492
vn -0.509966 0.853076 0.110433
vn -0.243701 0.087513 -0.965894
vn -0.261500 0.171422 -0.949859
vn -0.303027 0.167453 -0.938155
vn -0.303133 0.067986 -0.950520
vn 0.000000 -1.000000 0.000000
vn 0.000000 -1.000000 0.000000
vn 0.000000 -1.000000 0.000000
vn 0.000000 -1.000000 0.000000
vn 0.885679 0.462720 0.038255
vn 0.899160 0.436266 0.034395
vn 0.947800 0.313125 0.060229
vn 0.909184 0.406706 0.089301
vn -0.990433 0.126625 0.054843
vn -0.982597 0.182466 0.034781
vn -0.985764 0.161796 0.045724
vn -0.985979 0.116756 0.119217
vn 0.053743 0.944129 0.325165
vn 0.731893 0.529626 0.428753
vn 0.759331 0.645870 0.079174
vn 0.235421 0.963632 0.126454
vn -0.029130 0.281035 -0.959256
vn -0.004029 0.300114 -0.953895
vn 0.353423 0.329323 -0.875579
vn 0.339790 0.329552 -0.880874
vn 0.000000 -1.000000 0.000000
vn -0.003302 -0.999992 0.002186
vn -0.005469 -0.999978 0.003620
vn 0.000000 -1.000000 0.000000
vn 0.267138 0.370288 0.889677
vn 0.234657 0.037407 0.971358
vn 0.342948 0.112339 0.932613
vn 0.342948 0.112339 0.932613
vn 0.771309 0.607457 -0.189941
vn 0.310458 0.928795 -0.202378
vn -0.337338 0.940182 -0.047561
vn -0.335265 0.938946 0.077324
vn -0.995262 -0.092674 -0.029429
vn -0.995460 0.059056 0.074644
vn 0.000000 -1.000000 0.000000
vn 0.000000 -1.000000 0.000000
vn -0.009213 -0.999950 0.003920
vn -0.015930 -0.999845 0.007535
vn 0.963797 0.264341 -0.034922
vn 0.952406 0.304425 -0.015749
vn 0.905519 0.341680 0.251575
vn 0.914828 0.344953 0.209992
vn 0.906726 0.369310 0.203611
vn 0.720418 0.492557 0.488247
vn 0.449857 0.284372 0.846618
vn 0.439459 0.510858 0.738850
vn 0.645740 0.585854 0.489689
vn 0.729316 0.438575 0.525118
vn -0.238358 0.338321 0.910343
vn -0.070017 0.423436 0.903216
vn 0.144918 0.175839 0.973694
vn -0.299385 0.259423 0.918188
vn -0.976695 0.188874 0.101951
vn -0.981957 0.171556 0.079558
vn -0.962327 0.247665 0.112204
vn -0.985860 0.130005 0.105727
vn -0.987313 0.145397 0.063823
vn -0.991506 0.073761 0.107121
vn -0.067492 0.063180 -0.995717
vn -0.092161 0.129775 -0.987251
vn -0.161061 0.202867 -0.965870
vn -0.103140 0.083085 -0.991191
vn 0.419384 0.327174 -0.846803
vn 0.093771 0.282495 -0.954675
vn 0.004596 0.228766 -0.973471
vn 0.481868 0.323426 -0.814370
vn 0.964558 0.249893 -0.084744
vn 0.963657 0.247086 -0.101552
vn 0.817924 0.551756 -0.162992
vn 0.471554 0.863925 -0.176835
vn -0.248152 0.967534 -0.047947
vn -0.248905 0.965887 0.071473
vn -0.994485 0.104438 0.009588
vn -0.993530 0.022432 0.111335
vn -0.986101 -0.109968 -0.124547
vn -0.994621 0.026920 -0.100024
vn 0.000000 -1.000000 0.000000
vn 0.000000 -1.000000 0.000000
vn -0.013956 -0.999894 0.004076
vn -0.027204 -0.999598 0.007946
vn 0.949772 0.310859 -0.036045
vn 0.950212 0.310137 -0.030211
vn 0.947521 0.311502 -0.071911
vn 0.946988 0.302648 -0.107783
vn 0.613099 0.631714 0.474391
s 1
g pCube1
usemtl lambert2SG
f 1/1/1 40/57/2 41/59/3 22/33/4
s 2
usemtl initialShadingGroup
f 3/3/5 42/60/6 43/61/7 15/24/8
s 3
f 24/36/9 36/53/10 37/54/11 7/7/12
s 4
f 16/26/13 39/56/14 40/58/15 1/9/16
s 5
usemtl lambert2SG
f 2/2/17 18/29/18 19/30/19 20/31/20
s 6
f 16/25/21 1/1/22 22/33/23 23/34/24
s 2
f 9/15/25 4/4/26 13/20/27 14/22/28
s 3
f 11/17/29 25/37/30 26/38/31 8/8/32
s 4
usemtl initialShadingGroup
f 12/19/33 17/27/34 18/28/35 2/10/36
s 1
f 21/32/37 12/18/38 2/2/39 20/31/40
s 2
f 14/22/28 13/20/27 27/40/41 28/42/42
f 15/24/8 43/61/7 44/62/43 29/44/44
s 6
usemtl lambert2SG
f 31/46/45 16/25/21 23/34/24 30/45/46
s 4
usemtl initialShadingGroup
f 31/47/47 38/55/48 39/56/14 16/26/13
f 18/28/35 17/27/34 32/48/49 33/49/50
s 5
f 34/51/51 19/30/19 18/29/18 33/50/52
f 52/71/53 53/72/54 13/21/55 4/4/56
s 1
f 9/15/57 51/70/58 52/71/59 4/4/60
f 49/68/61 50/69/62 42/60/63 3/3/64
s 6
usemtl lambert2SG
f 48/67/65 49/68/66 3/3/67 15/23/68
usemtl initialShadingGroup
f 47/66/69 48/67/65 15/23/68 29/43/70
s 3
f 5/5/71 35/52/72 45/63/73 46/65/74
usemtl lambert2SG
f 55/74/75 56/76/76 10/16/77 6/6/78
s 5
usemtl initialShadingGroup
f 13/21/55 53/72/54 54/73/79 27/41/80
s 2
f 28/42/42 27/40/41 6/6/81 10/16/82
f 29/44/44 44/62/43 35/52/83 5/5/84
s 6
f 46/64/85 47/66/69 29/43/70 5/14/86
f 7/13/87 31/46/45 30/45/46 24/35/88
s 4
f 7/7/89 37/54/90 38/55/48 31/47/47
f 33/49/50 32/48/49 11/17/91 8/8/92
s 5
usemtl lambert2SG
f 26/39/93 34/51/51 33/50/52 8/11/94
usemtl initialShadingGroup
f 27/41/80 54/73/79 55/75/95 6/12/96
s 3
f 35/52/72 10/16/77 56/76/76 45/63/73
f 37/54/11 36/53/10 25/37/30 11/17/29
s 4
f 38/55/48 37/54/90 11/17/91 32/48/49
f 39/56/14 38/55/48 32/48/49 17/27/34
f 40/58/15 39/56/14 17/27/34 12/19/33
s 1
usemtl lambert2SG
f 41/59/3 40/57/2 12/18/38 21/32/37
usemtl initialShadingGroup
f 42/60/63 50/69/62 51/70/58 9/15/57
s 2
f 43/61/7 42/60/6 9/15/25 14/22/28
f 44/62/43 43/61/7 14/22/28 28/42/42
f 35/52/83 44/62/43 28/42/42 10/16/82
s 3
usemtl lambert2SG
f 46/65/74 45/63/73 36/53/10 24/36/9
s 6
usemtl initialShadingGroup
f 24/35/88 30/45/46 47/66/69 46/64/85
f 30/45/46 23/34/24 48/67/65 47/66/69
usemtl lambert2SG
f 23/34/24 22/33/23 49/68/66 48/67/65
s 1
usemtl initialShadingGroup
f 22/33/4 41/59/3 50/69/62 49/68/61
f 51/70/58 50/69/62 41/59/3 21/32/37
f 52/71/59 51/70/58 21/32/37 20/31/97
s 5
f 20/31/20 19/30/19 53/72/54 52/71/53
f 54/73/79 53/72/54 19/30/19 34/51/51
f 55/75/95 54/73/79 34/51/51 26/39/93
s 3
usemtl lambert2SG
f 26/38/31 25/37/30 56/76/76 55/74/75
usemtl initialShadingGroup
f 45/63/73 56/76/76 25/37/30 36/53/10
