# This file uses centimeters as units for non-parametric coordinates.

mtllib gun.mtl
g default
v -12.999386 -0.352535 12.985836
v -9.411220 -0.352535 12.985836
v -12.999386 -0.352535 2.391845
v -9.411220 -0.352535 2.391845
v -12.999386 -0.334075 4.439825
v -9.411220 -0.334075 4.439825
v -9.411220 -5.541033 12.031844
v -12.999386 -5.541033 12.031844
v -12.999386 -0.304918 -10.718296
v -9.411220 -0.304918 -10.718296
v -12.528287 -0.531192 -21.718033
v -9.882320 -0.531192 -21.718033
v -10.925884 3.437770 3.250874
v -11.484724 3.437770 3.250874
v -11.331863 3.802781 4.093806
v -11.078744 3.802781 4.093806
v -11.080396 3.820392 -20.925030
v -11.330210 3.820392 -20.925030
v -11.281457 4.079700 -20.412610
v -11.129149 4.079700 -20.412610
vt 0.375000 1.000000
vt 0.625000 1.000000
vt 0.375000 0.875000
vt 0.625000 0.875000
vt 0.375000 0.875000
vt 0.625000 0.875000
vt 0.625000 1.000000
vt 0.375000 1.000000
vt 0.375000 0.859375
vt 0.625000 0.859375
vt 0.625000 0.859375
vt 0.625000 0.000000
vt 0.375000 0.000000
vt 0.505661 0.278457
vt 0.488198 0.835792
vt 0.511802 0.835792
vt 0.375000 0.859375
vt 0.692518 0.127348
vt 0.765625 0.000000
vt 0.765625 0.000000
vt 0.234375 0.000000
vt 0.234375 0.000000
vt 0.250000 0.000000
vt 0.688323 0.134656
vt 0.750000 0.000000
vt 0.475002 0.262503
vt 0.497362 0.288723
vt 0.317521 0.142174
vt 0.524997 0.262503
vt 0.494339 0.278457
vt 0.312876 0.136743
vt 0.307482 0.127348
vt 0.311677 0.134656
vn 0.000000 0.905960 0.423362
vn 0.000000 0.905960 0.423362
vn 0.000000 0.905960 0.423362
vn 0.000000 0.905960 0.423362
vn 0.000000 -0.999959 0.009013
vn 0.000000 -0.999959 0.009013
vn 0.000000 -0.999959 0.009013
vn 0.928135 0.372244 0.000525
vn 0.928135 0.372244 0.000525
vn 0.928135 0.372244 0.000525
vn 0.928135 0.372244 0.000525
vn -0.928135 0.372244 0.000525
vn -0.928135 0.372244 0.000525
vn -0.928135 0.372244 0.000525
vn -0.928135 0.372244 0.000525
vn -0.929271 0.369394 0.001790
vn -0.929271 0.369394 0.001790
vn -0.929271 0.369394 0.001790
vn -0.929271 0.369394 0.001790
vn 0.000000 -0.999994 -0.003632
vn 0.000000 -0.999994 -0.003632
vn 0.000000 -0.999994 -0.003632
vn 0.000000 -0.999994 -0.003632
vn 0.929271 0.369394 0.001790
vn 0.929271 0.369394 0.001790
vn 0.929271 0.369394 0.001790
vn 0.929271 0.369394 0.001790
vn 1.000000 0.000000 0.000000
vn 1.000000 0.000000 0.000000
vn 1.000000 0.000000 0.000000
vn 1.000000 0.000000 0.000000
vn 0.000000 -0.180835 0.983513
vn 0.000000 -0.180835 0.983513
vn 0.000000 -0.180835 0.983513
vn 0.000000 -0.180835 0.983513
vn -1.000000 0.000000 0.000000
vn -1.000000 0.000000 0.000000
vn -1.000000 0.000000 0.000000
vn -1.000000 0.000000 0.000000
vn 0.000000 -0.999959 0.009013
vn 0.000000 -0.999959 0.009013
vn 0.000000 -0.999959 0.009013
vn 0.000000 -0.824678 -0.565602
vn 0.000000 -0.824678 -0.565602
vn 0.000000 -0.824678 -0.565602
vn 0.000000 -0.824678 -0.565602
vn -0.960858 0.273066 -0.046769
vn -0.960858 0.273066 -0.046769
vn -0.960858 0.273066 -0.046769
vn -0.960858 0.273066 -0.046769
vn 0.000000 -0.999788 0.020566
vn 0.000000 -0.999789 0.020566
vn 0.000000 -0.999789 0.020566
vn 0.000000 -0.999788 0.020566
vn 0.000000 0.179281 -0.983798
vn 0.000000 0.179281 -0.983798
vn 0.000000 0.179281 -0.983798
vn 0.000000 0.179281 -0.983798
vn 0.960858 0.273066 -0.046769
vn 0.960858 0.273066 -0.046769
vn 0.960858 0.273066 -0.046769
vn 0.960858 0.273066 -0.046769
vn 0.000000 0.999632 0.027117
vn 0.000000 0.999632 0.027117
vn 0.000000 0.999632 0.027117
vn 0.000000 0.999632 0.027117
vn 0.000000 0.917659 -0.397370
vn 0.000000 0.917659 -0.397370
vn 0.000000 0.917659 -0.397370
vn 0.000000 0.917659 -0.397370
vn 0.000000 0.892259 -0.451524
vn 0.000000 0.892259 -0.451524
vn 0.000000 0.892259 -0.451524
vn 0.000000 0.892259 -0.451524
s off
g pCube1
usemtl initialShadingGroup
f 1/13/1 2/12/2 16/14/3 15/30/4
f 6/6/5 5/5/6 3/3/7
f 2/12/8 4/25/9 13/29/10 16/14/11
f 3/23/12 1/13/13 15/30/14 14/26/15
f 9/21/16 3/23/17 14/26/18 19/33/19
f 9/9/20 10/10/21 4/4/22 3/3/23
f 20/24/24 13/29/25 4/25/26 10/19/27
f 4/4/28 2/2/29 7/7/30 6/6/31
f 2/2/32 1/1/33 8/8/34 7/7/35
f 1/1/36 3/3/37 5/5/38 8/8/39
f 6/6/40 3/3/41 4/4/42
f 6/6/43 7/7/44 8/8/45 5/5/46
usemtl lambert3SG
f 9/21/47 19/33/48 18/32/49 11/22/50
f 10/10/51 9/9/52 11/17/53 12/11/54
f 18/15/55 17/16/56 12/11/57 11/17/58
f 17/18/59 20/24/60 10/19/61 12/20/62
f 14/26/63 13/27/64 20/28/65 19/33/66
usemtl initialShadingGroup
f 13/29/67 14/26/68 15/30/69 16/14/70
f 17/31/71 18/32/72 19/33/73 20/28/74
