# This file uses centimeters as units for non-parametric coordinates.

mtllib sage_brush.mtl
g default
v 3.507175 0.077920 2.152273
v 3.340887 0.077920 1.625939
v 2.919832 0.077920 1.345883
v 2.441025 0.077920 1.443146
v 2.128506 0.077920 1.872217
v 2.128506 0.077920 2.432330
v 2.441025 0.077920 2.861401
v 2.919832 0.077920 2.958664
v 3.032390 1.235906 4.014497
v 3.507175 3.226074 2.152273
v 3.340887 1.962417 2.216091
v 2.919832 1.867178 1.952727
v 2.441025 0.710996 1.443146
v 2.128506 1.978035 1.872217
v 2.128506 0.710996 2.432330
v 2.071373 0.991359 2.699501
v 2.919832 1.539657 3.280425
v 2.714753 1.056964 2.678605
v 3.336472 0.859045 2.633635
v 3.499614 1.910238 2.071799
v 2.955812 1.787235 1.731657
v 1.933798 0.710996 2.513972
v 3.744623 0.859045 3.306802
v 3.714378 0.077920 2.152273
v 3.499614 0.077920 1.472502
v 2.955812 0.077920 1.110803
v 2.337423 0.077920 1.236420
v 1.933798 0.077920 1.790574
v 1.933798 0.077920 2.513972
v 2.337423 0.077920 3.068127
v 2.955812 0.077920 4.088004
v 3.499614 0.077920 3.726304
v 5.179177 3.247986 5.576918
v 2.954440 1.976114 2.813528
v 2.502552 3.669027 4.887558
v 2.049031 3.777163 0.908718
v 1.964905 2.108071 1.536255
v 1.437300 2.646609 4.830651
v 0.270743 3.933232 0.880817
v 2.743362 2.036326 3.864447
v 4.702199 3.419346 3.353029
v 3.227713 0.925647 1.304967
v 3.180930 5.079716 0.825404
vt 0.000000 1.000000
vt 0.111111 1.000000
vt 0.222222 1.000000
vt 0.333333 1.000000
vt 0.444444 1.000000
vt 0.555556 1.000000
vt 0.666667 1.000000
vt 0.777778 1.000000
vt 0.888889 1.000000
vt 1.000000 1.000000
vt 0.000000 0.750000
vt 0.111111 0.750000
vt 0.222222 0.750000
vt 0.333333 0.750000
vt 0.444444 0.750000
vt 0.555556 0.750000
vt 0.648205 0.565934
vt 0.777778 0.750000
vt 0.888889 0.750000
vt 1.000000 0.750000
vt 0.000000 0.500000
vt 0.111111 0.500000
vt 0.222222 0.500000
vt 0.388889 0.500000
vt 0.555556 0.500000
vt 0.806488 0.473640
vt 0.888889 0.500000
vt 1.000000 0.500000
vt 0.000000 0.250000
vt 0.111111 0.250000
vt 0.222222 0.250000
vt 0.333333 0.250000
vt 0.444444 0.250000
vt 0.555556 0.250000
vt 0.666667 0.250000
vt 0.777778 0.250000
vt 0.888889 0.250000
vt 1.000000 0.250000
vt 0.000000 0.000000
vt 0.111111 0.000000
vt 0.222222 0.000000
vt 0.333333 0.000000
vt 0.444444 0.000000
vt 0.555556 0.000000
vt 0.666667 0.000000
vt 0.777778 0.000000
vt 0.888889 0.000000
vt 1.000000 0.000000
vt 0.833333 0.375000
vt 0.944444 0.625000
vt 0.906357 0.614665
vt 0.500000 0.625000
vt 0.528604 0.624665
vt 0.611111 0.375000
vt 0.611111 0.625000
vt 0.912383 0.583815
vt 0.941532 0.538048
vt 0.166667 0.375000
vt 0.166667 0.625000
vn -0.684414 -0.084915 0.724132
vn -0.684414 -0.084915 0.724132
vn -0.684414 -0.084915 0.724132
vn -0.684413 -0.084915 0.724132
vn -0.500763 -0.268153 0.823001
vn -0.500763 -0.268153 0.823001
vn -0.500763 -0.268153 0.823001
vn -0.500763 -0.268153 0.823001
vn -0.123313 -0.241156 0.962620
vn -0.123313 -0.241156 0.962620
vn -0.123313 -0.241156 0.962620
vn -0.123313 -0.241156 0.962620
vn 0.808317 0.000000 0.588748
vn 0.808317 0.000000 0.588748
vn 0.808317 0.000000 0.588748
vn 0.808317 0.000000 0.588748
vn 1.000000 0.000000 0.000000
vn 1.000000 0.000000 0.000000
vn 1.000000 0.000000 0.000000
vn 1.000000 0.000000 0.000000
vn 0.900031 0.173263 -0.399906
vn 0.900031 0.173263 -0.399906
vn 0.900031 0.173263 -0.399906
vn 0.900031 0.173263 -0.399906
vn 0.410148 0.124640 -0.903462
vn 0.410148 0.124640 -0.903462
vn 0.410148 0.124640 -0.903462
vn 0.410148 0.124640 -0.903462
vn 0.980109 0.184104 -0.074103
vn 0.980109 0.184104 -0.074103
vn 0.980109 0.184104 -0.074103
vn 0.980109 0.184104 -0.074103
vn -0.769628 -0.328628 -0.547428
vn -0.769627 -0.328628 -0.547428
vn -0.769627 -0.328628 -0.547428
vn -0.769628 -0.328628 -0.547428
vn 0.999977 -0.005503 -0.003969
vn 0.999977 -0.005503 -0.003969
vn 0.999977 -0.005503 -0.003969
vn 0.999977 -0.005503 -0.003969
vn 0.553585 -0.255979 -0.792476
vn 0.553585 -0.255979 -0.792476
vn 0.553585 -0.255979 -0.792476
vn 0.804186 -0.478998 0.351917
vn 0.804186 -0.478998 0.351917
vn 0.804186 -0.478998 0.351917
vn 0.804186 -0.478998 0.351917
vn -0.956845 -0.152171 -0.247571
vn -0.956845 -0.152171 -0.247571
vn -0.956845 -0.152171 -0.247571
vn 0.911861 -0.216772 -0.348595
vn 0.911861 -0.216772 -0.348595
vn 0.911861 -0.216772 -0.348595
vn -0.756227 -0.060074 0.651546
vn -0.756227 -0.060074 0.651546
vn -0.756227 -0.060074 0.651546
vn -0.669421 0.644556 0.369355
vn -0.669421 0.644556 0.369355
vn -0.669421 0.644556 0.369355
vn 0.621390 0.743439 -0.247332
vn 0.621390 0.743439 -0.247332
vn 0.621390 0.743439 -0.247332
vn 0.621390 0.743439 -0.247332
vn 0.132950 0.201737 -0.970374
vn 0.132950 0.201737 -0.970374
vn 0.132950 0.201737 -0.970374
vn -0.387926 0.128609 0.912674
vn -0.387926 0.128609 0.912673
vn -0.387926 0.128609 0.912674
vn 0.816651 -0.296495 -0.495148
vn 0.816651 -0.296495 -0.495148
vn 0.816651 -0.296495 -0.495148
vn 0.991145 0.118778 0.059353
vn 0.991145 0.118778 0.059353
vn 0.991145 0.118778 0.059353
vn 0.991145 0.118778 0.059353
vn 0.553767 0.013077 -0.832569
vn 0.553767 0.013077 -0.832569
vn 0.553767 0.013077 -0.832569
vn -0.668776 0.419737 -0.613644
vn -0.668776 0.419737 -0.613644
vn -0.668776 0.419737 -0.613644
vn -0.668776 0.419737 -0.613644
vn -0.659839 0.577609 -0.480603
vn -0.659840 0.577609 -0.480603
vn -0.659840 0.577609 -0.480603
vn -0.971631 0.177975 -0.155753
vn -0.971631 0.177975 -0.155753
vn -0.971631 0.177975 -0.155753
vn -0.971631 0.177975 -0.155753
vn -0.666173 -0.566375 0.485215
vn -0.666173 -0.566375 0.485215
vn -0.666173 -0.566375 0.485215
vn -0.829612 0.042937 0.556687
vn -0.829612 0.042937 0.556687
vn -0.829612 0.042937 0.556687
vn -0.829612 0.042937 0.556687
vn 0.436791 -0.614786 0.656698
vn 0.436791 -0.614786 0.656698
vn 0.436791 -0.614786 0.656698
vn 0.992469 0.087809 -0.085409
vn 0.992469 0.087809 -0.085409
vn 0.992469 0.087809 -0.085409
vn 0.992469 0.087809 -0.085409
vn 0.000000 -1.000000 0.000000
vn 0.000000 -1.000000 0.000000
vn 0.000000 -1.000000 0.000000
vn 0.000000 -1.000000 0.000000
vn 0.000000 -1.000000 -0.000000
vn 0.000000 -1.000000 -0.000000
vn 0.000000 -1.000000 -0.000000
vn 0.000000 -1.000000 -0.000000
vn 0.000000 -1.000000 0.000000
vn 0.000000 -1.000000 0.000000
vn 0.000000 -1.000000 0.000000
vn 0.000000 -1.000000 0.000000
vn 0.000000 -1.000000 0.000000
vn 0.000000 -1.000000 0.000000
vn 0.000000 -1.000000 0.000000
vn 0.000000 -1.000000 0.000000
vn 0.000000 -1.000000 0.000000
vn 0.000000 -1.000000 0.000000
vn 0.000000 -1.000000 0.000000
vn 0.000000 -1.000000 0.000000
vn 0.000000 -1.000000 -0.000000
vn 0.000000 -1.000000 -0.000000
vn 0.000000 -1.000000 -0.000000
vn 0.000000 -1.000000 -0.000000
vn 0.000000 -1.000000 -0.000000
vn 0.000000 -1.000000 -0.000000
vn 0.000000 -1.000000 -0.000000
vn 0.000000 -1.000000 -0.000000
vn 0.794688 -0.090653 -0.600211
vn 0.794688 -0.090653 -0.600211
vn 0.794688 -0.090653 -0.600211
vn 0.794688 -0.090653 -0.600211
vn -0.864566 -0.502502 -0.004153
vn -0.864566 -0.502502 -0.004153
vn -0.864566 -0.502502 -0.004153
vn -0.864566 -0.502502 -0.004153
vn -0.234783 0.739969 -0.630335
vn -0.234783 0.739969 -0.630335
vn -0.234783 0.739969 -0.630335
vn -0.640229 0.090760 0.762804
vn -0.640229 0.090760 0.762804
vn -0.640229 0.090760 0.762804
vn 0.908611 -0.379104 -0.175231
vn 0.908611 -0.379104 -0.175231
vn 0.908611 -0.379104 -0.175231
vn -0.927605 0.278447 -0.249031
vn -0.927605 0.278447 -0.249031
vn -0.927605 0.278447 -0.249031
vn -0.860630 0.286249 -0.421162
vn -0.860630 0.286249 -0.421162
vn -0.860630 0.286249 -0.421162
vn -0.502087 -0.581856 0.639806
vn -0.502087 -0.581856 0.639806
vn -0.502087 -0.581856 0.639806
vn 0.178781 0.541240 -0.821643
vn 0.178781 0.541240 -0.821643
vn 0.178781 0.541240 -0.821643
vn 0.783915 0.608648 0.122578
vn 0.783915 0.608648 0.122578
vn 0.783915 0.608648 0.122578
vn 0.980425 0.021997 0.195659
vn 0.980425 0.021997 0.195659
vn 0.980425 0.021997 0.195659
vn 0.656996 0.104454 0.746623
vn 0.656996 0.104454 0.746623
vn 0.656996 0.104454 0.746623
vn -0.888410 0.185603 0.419856
vn -0.888410 0.185603 0.419856
vn -0.888410 0.185603 0.419856
vn -0.926871 -0.208214 -0.312341
vn -0.926871 -0.208214 -0.312341
vn -0.926871 -0.208214 -0.312341
vn -0.821704 0.236388 0.518578
vn -0.821704 0.236388 0.518578
vn -0.821704 0.236388 0.518578
vn 0.992853 -0.082474 -0.086260
vn 0.992853 -0.082474 -0.086260
vn 0.992853 -0.082474 -0.086260
vn 0.326172 0.537127 0.777886
vn 0.326172 0.537127 0.777886
vn 0.326172 0.537127 0.777886
vn -0.449413 0.635794 -0.627530
vn -0.449413 0.635794 -0.627530
vn -0.449413 0.635794 -0.627530
vn -0.977797 0.000000 -0.209556
vn -0.977797 0.000000 -0.209556
vn -0.977797 0.000000 -0.209556
vn 0.886899 0.400364 -0.230474
vn 0.886899 0.400364 -0.230474
vn 0.886899 0.400364 -0.230474
vn -0.321696 -0.554886 -0.767211
vn -0.321696 -0.554886 -0.767211
vn -0.321696 -0.554886 -0.767211
vn 0.373372 0.503648 -0.779059
vn 0.373372 0.503648 -0.779059
vn 0.373372 0.503648 -0.779059
vn 0.841065 0.168157 -0.514132
vn 0.841065 0.168157 -0.514132
vn 0.841065 0.168157 -0.514132
vn -0.365930 0.317718 -0.874729
vn -0.365930 0.317718 -0.874729
vn -0.365930 0.317718 -0.874729
vn -0.553483 0.315469 0.770802
vn -0.553483 0.315469 0.770802
vn -0.553483 0.315469 0.770802
vn 0.692529 0.323245 0.644916
vn 0.692529 0.323245 0.644916
vn 0.692529 0.323245 0.644916
vn -0.985553 0.021131 -0.168047
vn -0.985553 0.021131 -0.168047
vn -0.985553 0.021131 -0.168047
vn 0.953020 0.298458 0.051738
vn 0.953020 0.298458 0.051738
vn 0.953020 0.298458 0.051738
s off
g pPipe1
usemtl lambert3SG
f 2/2/1 1/1/2 10/11/3 11/12/4
f 3/3/5 2/2/6 11/12/7 12/13/8
f 4/4/9 3/3/10 12/13/11 13/14/12
f 5/5/13 4/4/14 13/14/15 14/15/16
f 6/6/17 5/5/18 14/15/19 15/16/20
f 7/7/21 6/6/22 15/16/23 16/17/24
f 8/8/25 7/7/26 16/17/27 17/18/28
f 9/9/29 8/8/30 17/18/31 18/19/32
f 1/10/33 9/9/34 18/19/35 10/20/36
f 11/12/37 10/11/38 19/21/39 20/22/40
f 21/23/41 43/59/42 20/22/43
f 13/14/44 12/13/45 21/23/46 16/24/47
f 14/15/48 13/14/49 16/24/50
f 22/25/51 36/52/52 16/24/53
f 16/17/54 39/55/55 22/25/56
f 17/18/57 16/17/58 9/26/59
f 18/19/60 17/18/61 9/26/62 23/27/63
f 41/57/64 19/28/65 34/50/66
f 41/57/67 34/50/68 23/27/69
f 41/57/70 23/27/71 19/28/72
f 20/22/73 19/21/74 24/29/75 25/30/76
f 26/31/77 42/58/78 25/30/79
f 16/24/80 21/23/81 26/31/82 27/32/83
f 16/24/84 27/32/85 28/33/86
f 22/25/87 16/24/88 28/33/89 29/34/90
f 30/35/91 38/54/92 29/34/93
f 9/26/94 16/17/95 30/35/96 31/36/97
f 32/37/98 33/49/99 31/36/100
f 19/28/101 23/27/102 32/37/103 24/38/104
f 25/30/105 24/29/106 1/39/107 2/40/108
f 26/31/109 25/30/110 2/40/111 3/41/112
f 27/32/113 26/31/114 3/41/115 4/42/116
f 28/33/117 27/32/118 4/42/119 5/43/120
f 29/34/121 28/33/122 5/43/123 6/44/124
f 30/35/125 29/34/126 6/44/127 7/45/128
f 31/36/129 30/35/130 7/45/131 8/46/132
f 32/37/133 31/36/134 8/46/135 9/47/136
f 24/38/137 32/37/138 9/47/139 1/48/140
f 9/26/141 33/49/142 23/27/143
f 33/49/144 9/26/145 31/36/146
f 23/27/147 33/49/148 32/37/149
f 10/20/150 18/19/151 34/50/152
f 35/51/153 34/50/154 18/19/155
f 35/51/156 18/19/157 23/27/158
f 40/56/159 35/51/160 23/27/161
f 40/56/162 23/27/163 34/50/164
f 40/56/165 34/50/166 35/51/167
f 10/20/168 34/50/169 19/28/170
f 15/16/171 14/15/172 36/52/173
f 36/52/174 14/15/175 16/24/176
f 37/53/177 15/16/178 36/52/179
f 37/53/180 36/52/181 22/25/182
f 37/53/183 22/25/184 15/16/185
f 16/17/186 22/25/187 38/54/188
f 38/54/189 22/25/190 29/34/191
f 16/17/192 15/16/193 39/55/194
f 39/55/195 15/16/196 22/25/197
f 21/23/198 20/22/199 42/58/200
f 42/58/201 20/22/202 25/30/203
f 21/23/204 42/58/205 26/31/206
f 12/13/207 11/12/208 43/59/209
f 43/59/210 11/12/211 20/22/212
f 12/13/213 43/59/214 21/23/215
f 30/35/216 16/17/217 38/54/218
