# This file uses centimeters as units for non-parametric coordinates.

mtllib Cliff_1.mtl
g default
v -6.896752 -0.114130 5.703380
v 5.502137 -0.114130 11.636141
v -6.896752 14.983804 5.703380
v 4.884619 13.215167 10.215356
v -6.896752 11.667241 -6.077991
v 4.884619 11.667241 -6.077991
v -6.896752 -0.114130 -9.308796
v 4.884619 -0.114130 -9.434009
v 4.884619 11.866678 1.612275
v -9.076386 11.667241 1.612275
v -6.896752 -0.114130 1.612275
v 5.470371 -0.114130 -1.015607
v 4.884619 13.375500 -3.523956
v -6.697742 14.263623 -1.608017
v -6.896752 -0.114130 -3.523956
v 7.923760 -0.114130 -3.523956
v 4.884619 4.985011 9.495056
v -6.896752 8.197462 5.703380
v -7.542700 7.167196 2.020037
v -8.149780 7.167196 -2.797774
v -6.896752 7.167196 -4.842958
v 4.884619 5.600068 -6.077991
v 4.884619 7.167196 -3.523956
v 6.754090 7.167196 1.612275
v 4.884619 15.009646 6.124704
v -7.933139 13.406822 3.758113
v -8.309998 8.529563 3.951999
v -6.896752 -0.114130 3.758113
v 10.261098 -0.114130 5.620401
v 7.611618 4.471658 5.746897
vt 0.375000 0.000000
vt 0.625000 0.000000
vt 0.375000 0.250000
vt 0.625000 0.250000
vt 0.375000 0.500000
vt 0.625000 0.500000
vt 0.375000 0.750000
vt 0.625000 0.750000
vt 0.375000 1.000000
vt 0.625000 1.000000
vt 0.875000 0.000000
vt 0.875000 0.250000
vt 0.125000 0.000000
vt 0.125000 0.250000
vt 0.625000 0.336813
vt 0.711813 0.250000
vt 0.288187 0.250000
vt 0.375000 0.336813
vt 0.288187 0.000000
vt 0.375000 0.913187
vt 0.625000 0.913187
vt 0.711813 0.000000
vt 0.625000 0.445804
vt 0.820804 0.250000
vt 0.179196 0.250000
vt 0.375000 0.445804
vt 0.179196 0.000000
vt 0.375000 0.804196
vt 0.625000 0.804196
vt 0.820804 0.000000
vt 0.625000 0.154509
vt 0.375000 0.154509
vt 0.288187 0.154509
vt 0.179196 0.154509
vt 0.125000 0.154509
vt 0.375000 0.595491
vt 0.625000 0.595491
vt 0.875000 0.154509
vt 0.820804 0.154509
vt 0.711813 0.154509
vt 0.625000 0.291278
vt 0.666278 0.250000
vt 0.333722 0.250000
vt 0.375000 0.291278
vt 0.333722 0.154509
vt 0.333722 0.000000
vt 0.375000 0.958722
vt 0.625000 0.958722
vt 0.666278 0.000000
vt 0.666278 0.154509
vn -0.354802 0.131448 0.925655
vn -0.354802 0.131448 0.925655
vn -0.350179 0.058068 0.934881
vn -0.347535 0.025663 0.937316
vn -0.003501 0.999323 0.036611
vn -0.003501 0.999323 0.036611
vn -0.002853 0.944683 -0.327972
vn -0.002461 0.882980 -0.469404
vn -0.037422 0.241011 -0.969801
vn -0.033199 0.298157 -0.953939
vn -0.015161 0.515626 -0.856680
vn -0.015161 0.515626 -0.856680
vn 0.000000 -1.000000 0.000000
vn 0.000000 -1.000000 0.000000
vn 0.000000 -1.000000 0.000000
vn 0.000000 -1.000000 0.000000
vn 0.747355 0.367278 0.553685
vn 0.949008 0.314743 0.017942
vn 0.961184 0.266041 0.073130
vn 0.866120 0.230290 0.443625
vn -0.988800 -0.104958 0.106104
vn -0.933366 -0.081794 0.349482
vn -0.902983 -0.036128 0.428155
vn -0.959667 -0.066618 0.273132
vn 0.032130 0.995096 -0.093555
vn 0.034145 0.997710 -0.058386
vn 0.027265 0.998841 -0.039652
vn 0.038380 0.991451 0.124704
vn -0.995476 -0.084736 -0.042972
vn -0.991423 -0.130695 0.000348
vn -0.994036 -0.093598 -0.055960
vn -0.994505 -0.031693 -0.099781
vn -0.000000 -1.000000 -0.000000
vn -0.000000 -1.000000 -0.000000
vn -0.000000 -1.000000 0.000000
vn -0.000000 -1.000000 0.000000
vn 0.961954 0.214076 -0.169754
vn 0.972941 0.156381 -0.170093
vn 0.961702 0.216832 -0.167670
vn 0.983745 0.144951 -0.105999
vn -0.010416 0.852708 -0.522284
vn -0.010416 0.852708 -0.522284
vn -0.987032 -0.028613 -0.157953
vn -0.983985 0.027304 -0.176146
vn -0.000000 -1.000000 -0.000000
vn -0.000000 -1.000000 -0.000000
vn 0.878342 0.301259 -0.371158
vn 0.914521 0.254942 -0.314095
vn -0.340492 -0.045049 0.939168
vn -0.340492 -0.045049 0.939168
vn -0.838603 0.036131 0.543544
vn -0.889665 -0.001204 0.456613
vn -0.994387 -0.027013 -0.102297
vn -0.976196 0.053734 -0.210131
vn -0.971221 0.120809 -0.205267
vn -0.059674 -0.115877 -0.991469
vn -0.059674 -0.115877 -0.991469
vn 0.987013 0.118518 -0.108440
vn 1.000000 0.000000 0.000000
vn 0.962613 0.238894 -0.127694
vn 0.967656 0.191667 0.164030
vn 0.932172 0.115367 0.343143
s 1
g pCube1
usemtl initialShadingGroup
f 1/1/1 2/2/2 17/31/3 18/32/4
s 2
f 3/3/5 4/4/6 25/41/7 26/44/8
s 3
f 21/36/9 22/37/10 8/8/11 7/7/12
s 4
f 28/47/13 29/48/14 2/10/15 1/9/16
s 5
f 2/2/17 29/49/18 30/50/19 17/31/20
s 6
f 28/46/21 1/1/22 18/32/23 27/45/24
s 2
f 10/18/25 9/15/26 13/23/27 14/26/28
s 6
f 15/27/29 11/19/30 19/33/31 20/34/32
s 4
f 15/28/33 16/29/34 12/21/35 11/20/36
s 5
f 24/40/37 12/22/38 16/30/39 23/39/40
s 2
f 14/26/28 13/23/27 6/6/41 5/5/42
s 6
f 7/13/43 15/27/29 20/34/32 21/35/44
s 4
f 7/7/45 8/8/46 16/29/34 15/28/33
s 5
f 23/39/40 16/30/39 8/11/47 22/38/48
s 1
f 18/32/4 17/31/3 4/4/49 3/3/50
s 6
f 27/45/24 18/32/23 3/3/51 26/43/52
f 20/34/32 19/33/31 10/17/53 14/25/54
f 21/35/44 20/34/32 14/25/54 5/14/55
s 3
f 5/5/56 6/6/57 22/37/10 21/36/9
s 5
f 13/24/58 23/39/40 22/38/48 6/12/59
f 9/16/60 24/40/37 23/39/40 13/24/58
f 17/31/20 30/50/19 25/42/61 4/4/62
s 2
f 26/44/8 25/41/7 9/15/26 10/18/25
s 6
f 19/33/31 27/45/24 26/43/52 10/17/53
f 11/19/30 28/46/21 27/45/24 19/33/31
s 4
f 11/20/36 12/21/35 29/48/14 28/47/13
s 5
f 30/50/19 29/49/18 12/22/38 24/40/37
f 25/42/61 30/50/19 24/40/37 9/16/60
